<?xml version="1.0" standalone="no"?>
<!DOCTYPE svg PUBLIC "-//W3C//DTD SVG 20010904//EN"
 "http://www.w3.org/TR/2001/REC-SVG-20010904/DTD/svg10.dtd">
<svg version="1.0" xmlns="http://www.w3.org/2000/svg"
 width="1024.000000pt" height="1024.000000pt" viewBox="0 0 1024.000000 1024.000000"
 preserveAspectRatio="xMidYMid meet">

<g transform="translate(0.000000,1024.000000) scale(0.100000,-0.100000)"
fill="#000000" stroke="none">
<path d="M5010 7647 c-3 -3 -39 -8 -80 -11 -148 -12 -186 -18 -390 -62 -84
-18 -289 -78 -335 -98 -16 -7 -64 -26 -105 -42 -73 -27 -323 -150 -407 -198
-310 -182 -666 -530 -884 -866 -125 -191 -243 -486 -303 -751 -5 -21 -13 -28
-43 -32 -42 -7 -78 -15 -78 -17 0 -2 -22 -7 -50 -13 -8 -2 -18 -6 -21 -10 -4
-4 -17 -7 -29 -7 -12 0 -25 -3 -29 -7 -4 -5 -11 -8 -14 -8 -31 -2 -209 -84
-332 -152 -65 -36 -226 -153 -289 -209 -87 -78 -225 -239 -296 -345 -108 -162
-189 -336 -255 -554 -63 -208 -77 -554 -30 -790 96 -489 390 -910 810 -1159
58 -34 130 -72 160 -85 30 -13 73 -31 95 -41 42 -19 201 -71 273 -90 179 -46
46 -44 2766 -47 2245 -3 2564 -2 2670 12 281 36 461 95 721 240 207 115 436
337 585 570 321 498 356 1121 95 1668 -24 51 -56 110 -70 130 -14 21 -25 40
-25 43 0 9 -91 136 -139 194 -86 103 -216 232 -296 294 -78 61 -172 126 -180
126 -3 0 -28 15 -57 33 -70 45 -148 83 -228 113 -36 13 -74 29 -85 34 -37 18
-180 61 -242 73 l-62 11 -11 51 c-114 535 -433 1038 -895 1415 -70 57 -200
150 -209 150 -2 0 -42 23 -88 51 -153 95 -330 174 -543 245 -303 99 -508 134
-840 141 -126 3 -232 3 -235 0z m537 -232 c106 -16 218 -39 341 -72 78 -20
112 -52 112 -102 -1 -41 -14 -62 -50 -77 -28 -12 -50 -8 -200 31 -329 85 -770
86 -1134 1 -291 -68 -556 -183 -802 -348 -104 -70 -164 -121 -301 -255 -231
-228 -339 -370 -468 -618 -32 -60 -67 -120 -79 -133 -65 -67 -172 -2 -146 88
27 93 207 398 333 565 83 109 367 386 389 379 10 -3 48 21 105 66 98 79 250
171 388 236 324 151 603 224 985 258 91 8 423 -4 527 -19z m-562 -349 c-10 -7
-28 -11 -39 -8 -18 5 -17 7 9 13 47 10 50 10 30 -5z m75 -3 c0 -13 -2 -15 -8
-5 -9 14 -42 6 -42 -10 0 -5 -4 -7 -9 -4 -5 4 -11 1 -13 -5 -2 -7 -11 -10 -18
-7 -10 3 -1 12 25 26 49 26 65 27 65 5z m40 2 c0 6 10 12 22 12 18 2 20 0 8
-7 -12 -8 -11 -10 7 -10 12 0 23 5 25 12 3 8 9 8 22 1 16 -9 14 -11 -16 -17
-20 -3 -43 -4 -52 0 -10 4 -16 1 -16 -7 0 -11 -3 -11 -10 1 -5 8 -10 20 -10
25 0 6 5 3 10 -5 5 -8 10 -10 10 -5z m130 11 c0 -3 -4 -8 -10 -11 -5 -3 -10
-1 -10 4 0 6 5 11 10 11 6 0 10 -2 10 -4z m125 -11 c6 -2 -13 -3 -42 -3 -29 1
-50 4 -48 8 4 6 70 2 90 -5z m40 5 c3 -6 -1 -7 -9 -4 -18 7 -21 14 -7 14 6 0
13 -4 16 -10z m-502 -10 c-13 -5 -23 -15 -23 -21 0 -7 -3 -9 -6 -6 -10 10 16
37 35 36 11 0 9 -3 -6 -9z m-60 -7 c-7 -2 -9 -11 -6 -19 3 -8 -1 -14 -8 -14
-7 0 -9 3 -6 7 4 3 3 11 -3 17 -6 8 -2 12 13 13 12 0 17 -1 10 -4z m-73 -24
c0 -8 6 -7 17 2 15 13 15 12 5 -8 -9 -16 -9 -23 1 -26 8 -4 8 -6 1 -6 -7 -1
-19 10 -28 24 -9 14 -12 25 -6 25 5 0 10 -5 10 -11z m-15 -19 c3 -5 -4 -6 -15
-3 -11 3 -22 9 -25 13 -3 5 4 6 15 3 11 -3 22 -9 25 -13z m-91 -7 c-9 -7 -21
-10 -26 -7 -14 9 -1 20 22 20 20 0 20 -1 4 -13z m161 -1 c-3 -3 -11 0 -18 7
-9 10 -8 11 6 5 10 -3 15 -9 12 -12z m-115 -6 c-1 -5 4 -13 12 -18 11 -8 11
-9 0 -6 -8 2 -13 7 -12 12 1 5 -4 13 -12 18 -11 8 -11 9 0 6 8 -2 13 -7 12
-12z m-99 -26 c6 0 7 6 3 13 -6 9 -5 9 8 0 8 -7 17 -11 20 -8 2 3 5 -2 5 -10
0 -8 -3 -13 -5 -10 -3 3 -12 -1 -20 -8 -10 -8 -13 -8 -9 -1 4 7 0 15 -9 18
-21 8 -26 8 -20 -2 2 -4 -4 -9 -15 -9 -10 -1 -19 3 -19 8 0 6 4 8 9 5 5 -3 15
1 22 10 8 10 15 12 17 5 2 -6 8 -11 13 -11z m-93 1 c-2 -4 8 -18 22 -30 l25
-22 -24 12 c-21 10 -23 9 -17 -6 6 -16 4 -16 -10 -4 -10 8 -12 15 -5 17 6 2 9
8 6 12 -3 5 -12 7 -20 4 -8 -4 -12 -11 -8 -18 4 -6 -1 -5 -10 3 -13 11 -17 11
-17 1 0 -8 -3 -10 -7 -7 -3 4 -13 1 -22 -6 -14 -10 -14 -10 -4 4 7 9 10 19 6
23 -4 4 0 4 9 1 9 -4 19 -2 22 4 4 6 14 7 23 4 11 -4 14 -3 9 5 -4 7 -1 12 8
12 9 0 15 -4 14 -9z m-105 -32 c-14 -14 -5 -42 10 -32 6 4 7 1 2 -7 -6 -10
-11 -9 -21 4 -7 10 -15 13 -18 7 -4 -5 -2 -13 4 -16 8 -5 8 -11 1 -19 -6 -7
-8 -16 -4 -20 4 -4 -1 -4 -11 0 -11 4 -14 9 -6 14 6 3 8 14 4 24 -5 14 -9 14
-23 4 -14 -11 -14 -11 -4 3 7 9 10 19 7 22 -4 4 3 5 14 2 11 -2 26 3 33 11 6
8 14 14 17 14 3 0 1 -5 -5 -11z m-73 -24 c0 -2 -10 -9 -22 -15 -22 -11 -22
-10 -4 4 21 17 26 19 26 11z m164 -3 c2 -4 -4 -8 -14 -8 -10 0 -16 4 -14 8 3
4 9 8 14 8 5 0 11 -4 14 -8z m-229 -46 c-13 -20 -15 -25 -15 -44 0 -4 -9 -8
-19 -8 -11 0 -17 4 -15 8 3 4 12 8 21 8 11 0 9 5 -8 21 -13 11 -19 18 -13 15
7 -3 17 0 23 7 6 8 17 14 25 14 12 0 12 -3 1 -21z m69 -4 c3 -5 -1 -9 -9 -9
-8 0 -12 4 -9 9 3 4 7 8 9 8 2 0 6 -4 9 -8z m-44 -37 c0 -7 -7 -15 -15 -19
-12 -4 -13 -2 -6 13 6 10 7 22 3 26 -4 5 -1 5 6 1 6 -4 12 -13 12 -21z m-112
-3 c2 -7 -2 -10 -12 -6 -9 3 -16 11 -16 16 0 13 23 5 28 -10z m-42 -13 c3 -22
5 -23 13 -10 7 10 12 11 27 1 16 -9 16 -11 2 -6 -10 3 -20 1 -23 -3 -2 -5 -14
-11 -26 -14 -16 -4 -19 -2 -14 11 4 9 8 23 8 30 0 13 11 6 13 -9z m-36 -33
c-10 -27 -3 -41 14 -26 7 5 17 5 26 0 14 -9 7 -12 -16 -9 -4 0 -11 -5 -15 -13
-5 -7 -9 -8 -9 -2 0 6 -14 10 -30 9 -29 -2 -29 -1 -14 16 9 10 21 16 25 13 5
-3 9 7 9 21 0 14 4 24 10 20 6 -3 6 -15 0 -29z m104 0 c-7 -19 -20 -21 -30 -4
-4 7 -3 8 5 4 6 -4 14 0 17 9 4 9 8 14 10 12 3 -2 2 -12 -2 -21z m-144 -1 c-7
-8 -17 -15 -23 -15 -6 0 -2 7 9 15 25 19 30 19 14 0z m-60 -29 c0 -2 -8 -10
-17 -17 -16 -13 -17 -12 -4 4 13 16 21 21 21 13z m40 -35 c0 11 2 11 9 -1 10
-14 6 -30 -7 -30 -4 0 -13 10 -21 23 -13 20 -13 21 2 8 14 -11 17 -11 17 0z
m-106 -36 c-3 -15 2 -21 16 -22 11 -1 18 3 14 8 -3 5 -2 9 3 8 4 -1 16 1 26 6
15 6 16 10 5 17 -10 8 -10 9 1 6 26 -7 22 -23 -12 -43 -17 -10 -36 -19 -42
-20 -5 0 -17 -9 -26 -19 -14 -17 -16 -17 -22 -3 -4 12 -2 14 11 10 15 -6 15
-5 3 10 -12 15 -12 17 4 11 15 -6 16 -5 4 14 -9 14 -17 18 -23 12 -6 -6 -14
-10 -19 -10 -5 0 1 8 13 18 31 25 49 24 44 -3z m43 9 c-3 -3 -12 -4 -19 -1 -8
3 -5 6 6 6 11 1 17 -2 13 -5z m-101 -57 c2 -14 -1 -15 -17 -6 -11 5 -17 15
-13 20 9 14 27 6 30 -14z m-25 -31 c8 5 10 3 5 -5 -5 -7 -14 -10 -22 -7 -8 3
-14 -1 -14 -8 0 -8 -7 -16 -15 -20 -13 -5 -13 -2 1 18 10 16 12 26 5 31 -6 3
-11 -2 -11 -11 0 -10 -3 -15 -6 -11 -4 3 -4 14 0 23 6 16 8 16 26 -1 10 -9 24
-14 31 -9z m-54 -78 c0 -13 -1 -17 -4 -10 -3 6 -9 10 -13 7 -5 -3 -12 0 -16 6
-4 7 -3 9 4 5 6 -3 13 -2 17 4 9 14 11 13 12 -12z m-48 -21 c9 4 13 3 10 -1
-13 -14 -46 -14 -46 0 0 9 4 11 10 5 5 -5 17 -7 26 -4z m2356 -19 c178 -21
360 -86 496 -180 144 -99 289 -248 454 -467 43 -57 86 -106 96 -108 10 -3 23
-19 28 -37 20 -66 52 -203 58 -253 l6 -52 146 0 c81 -1 171 -5 201 -11 30 -6
78 -13 106 -15 63 -5 249 -67 277 -92 12 -11 70 -48 130 -83 111 -66 232 -155
241 -178 3 -7 -22 3 -57 23 -164 95 -265 133 -492 185 -77 18 -149 38 -160 45
-11 7 -58 15 -105 19 -111 9 -418 10 -451 1 -26 -6 -26 -6 -58 127 -44 175
-74 264 -127 373 -90 184 -210 306 -389 395 -110 54 -183 79 -332 112 -82 18
-131 22 -298 22 -129 1 -221 -4 -260 -12 -144 -31 -272 -85 -385 -162 -115
-79 -292 -271 -402 -439 l-49 -75 27 -21 c14 -11 74 -45 132 -75 l106 -54 50
60 c73 85 209 218 259 252 220 150 524 211 792 157 194 -38 346 -168 459 -392
64 -128 176 -427 176 -471 0 -17 -42 -65 -148 -170 l-149 -147 17 -27 c9 -16
19 -26 22 -23 2 3 45 -13 94 -35 l91 -40 49 24 c73 35 185 59 236 51 48 -7
138 -34 153 -45 6 -4 35 -13 65 -20 86 -19 148 -58 241 -150 71 -70 94 -101
130 -174 l44 -90 -2 -150 c-1 -126 -6 -169 -28 -261 -15 -60 -31 -114 -35
-120 -4 -5 -13 -27 -19 -47 -15 -47 -82 -149 -122 -189 -65 -63 -218 -146
-369 -199 l-65 -23 -1888 7 -1889 6 -106 35 c-232 75 -342 184 -411 408 -56
184 -54 454 5 636 82 250 260 400 644 544 52 19 103 37 112 40 9 3 35 39 59
79 91 158 221 338 291 404 52 49 127 103 179 130 56 28 196 70 260 78 24 3 82
10 129 16 47 6 121 13 164 14 l80 2 64 115 c153 273 302 446 467 541 136 79
241 119 404 154 193 42 381 53 556 32z m-2221 -122 c32 -140 100 -222 226
-273 38 -15 70 -31 70 -34 0 -3 -24 -13 -53 -22 -117 -37 -191 -109 -243 -240
l-27 -67 -18 49 c-54 155 -139 233 -295 272 l-47 12 74 26 c172 61 241 143
270 323 14 91 12 93 43 -46z m-219 104 c-27 -12 -43 -12 -25 0 8 5 22 9 30 9
10 0 8 -3 -5 -9z m4 -43 c9 4 13 3 10 -1 -13 -14 -46 -14 -46 0 0 9 4 11 10 5
5 -5 17 -7 26 -4z m116 -5 c-3 -3 -11 0 -18 7 -9 10 -8 11 6 5 10 -3 15 -9 12
-12z m-208 -24 c-2 -7 3 -19 12 -26 14 -11 13 -11 -6 -2 -27 13 -30 3 -5 -17
15 -13 15 -13 -4 -4 -12 6 -25 7 -29 3 -4 -4 0 8 9 26 16 31 32 45 23 20z
m213 -12 c0 -2 -7 -7 -16 -10 -8 -3 -12 -2 -9 4 6 10 25 14 25 6z m-13 -41 c0
-8 -4 -12 -9 -9 -5 3 -6 10 -3 15 9 13 12 11 12 -6z m-16 -32 c13 -16 12 -17
-4 -4 -16 13 -18 12 -13 -12 4 -21 1 -25 -12 -20 -15 6 -16 5 -2 -12 8 -10 10
-16 3 -12 -6 4 -14 1 -17 -5 -3 -7 -3 -1 -1 14 2 19 -2 31 -13 38 -9 5 -12 10
-5 10 6 0 15 -4 18 -10 3 -5 11 -10 16 -10 6 0 7 5 4 10 -5 9 1 30 9 30 2 0
10 -8 17 -17z m-244 -18 c0 -6 -12 -11 -26 -12 -15 0 -18 1 -8 4 9 2 15 8 13
12 -3 4 1 8 8 8 7 0 13 -5 13 -12z m-42 -35 c-3 -5 -12 -10 -18 -10 -7 0 -6 4
3 10 19 12 23 12 15 0z m188 -43 c-4 -6 0 -8 11 -4 9 4 15 3 12 -2 -3 -5 -17
-8 -32 -8 -14 0 -22 2 -16 6 5 3 8 14 6 24 -2 15 0 16 12 6 7 -6 11 -16 7 -22z
m-232 0 c-10 -9 -11 -8 -5 6 3 10 9 15 12 12 3 -3 0 -11 -7 -18z m279 13 c8
-5 11 -10 5 -10 -5 0 -17 5 -25 10 -8 5 -10 10 -5 10 6 0 17 -5 25 -10z m-55
-42 c5 4 5 1 1 -6 -5 -9 -12 -9 -27 -2 -10 6 -19 13 -19 16 0 2 8 0 19 -5 10
-6 22 -7 26 -3z m-40 -17 c3 -5 2 -12 -3 -15 -5 -3 -9 1 -9 9 0 17 3 19 12 6z
m-211 -26 c-9 -14 -18 -25 -21 -25 -5 0 5 18 20 38 17 22 18 13 1 -13z m61 15
c3 -5 11 -10 16 -10 6 0 8 4 5 8 -3 5 1 9 9 9 20 0 19 -13 -1 -21 -9 -3 -25 1
-37 9 -12 8 -16 15 -10 15 7 0 15 -4 18 -10z m106 -7 c8 -9 9 -14 2 -10 -6 4
-13 1 -16 -5 -3 -7 -4 -3 -4 10 1 26 1 26 18 5z m-117 -14 c3 -3 -5 -5 -19 -5
-13 0 -22 3 -19 7 4 8 30 6 38 -2z m56 -3 c0 -2 -6 -9 -14 -15 -11 -9 -16 -9
-22 0 -4 7 -3 9 4 5 6 -3 13 -2 17 4 6 10 15 14 15 6z m-103 -36 c1 -11 -3
-20 -8 -20 -6 0 -7 5 -4 10 3 6 1 10 -4 10 -6 0 -11 -8 -12 -17 0 -13 -2 -14
-6 -4 -4 10 20 41 32 41 0 0 1 -9 2 -20z m28 11 c3 -5 2 -12 -3 -15 -5 -3 -9
1 -9 9 0 17 3 19 12 6z m-75 -36 c0 -1 -9 -5 -19 -8 -13 -3 -18 -1 -14 9 4 10
33 10 33 -1z m40 -25 c0 -5 -5 -10 -11 -10 -5 0 -7 5 -4 10 3 6 8 10 11 10 2
0 4 -4 4 -10z m-78 -7 c-6 -2 -9 -10 -6 -15 4 -7 2 -8 -5 -4 -13 9 -5 26 12
25 9 0 8 -2 -1 -6z m70 -20 c-6 -2 -9 -10 -6 -15 4 -7 2 -8 -5 -4 -13 9 -5 26
12 25 9 0 8 -2 -1 -6z m-88 -44 c-22 -25 -36 -14 -22 16 9 20 14 22 25 13 11
-9 11 -14 -3 -29z m36 8 c0 -2 -10 -12 -22 -23 l-23 -19 19 23 c18 21 26 27
26 19z m16 -16 c-4 -5 0 -12 6 -15 7 -3 4 -4 -7 -3 -12 1 -19 -3 -17 -11 1 -8
-2 -11 -8 -7 -8 5 -6 13 6 26 18 20 29 26 20 10z m-93 -33 c-6 -7 -9 -21 -8
-30 2 -11 -2 -15 -12 -11 -12 5 -12 7 -1 14 7 5 9 9 4 9 -5 0 -3 7 4 15 15 18
27 20 13 3z m26 -51 c-2 -1 -13 -9 -24 -17 -19 -14 -19 -14 -6 3 7 9 18 17 24
17 6 0 8 -1 6 -3z m34 -34 c-10 -28 -24 -43 -35 -37 -5 3 -2 14 7 24 13 14 13
19 3 23 -7 3 -3 6 9 6 17 1 21 -3 16 -16z m-128 -72 c3 -5 2 -12 -3 -15 -5 -3
-9 1 -9 9 0 17 3 19 12 6z m61 -23 c7 -12 -25 -42 -35 -32 -3 3 3 10 13 16 15
8 16 12 5 19 -9 6 -10 9 -2 9 6 0 15 -5 19 -12z m4 -47 c-9 -19 -51 -24 -66
-8 -3 3 8 4 25 2 18 -2 29 0 26 5 -4 7 4 14 23 19 1 1 -2 -8 -8 -18z m-105
-51 c3 -5 1 -10 -4 -10 -6 0 -11 5 -11 10 0 6 2 10 4 10 3 0 8 -4 11 -10z m80
-10 c20 -9 20 -9 0 -9 -14 -1 -21 -8 -22 -23 -2 -22 -1 -22 13 -4 12 17 14 17
14 4 0 -9 -5 -20 -10 -23 -6 -4 -8 -10 -6 -14 3 -4 -1 -8 -8 -8 -7 0 -13 7
-12 16 1 9 -5 15 -12 13 -8 -1 -11 2 -6 9 5 8 2 10 -9 6 -9 -3 -21 1 -28 11
-8 9 -10 14 -5 10 5 -4 18 -1 30 7 23 17 32 17 61 5z m-65 -59 c3 -2 -2 -2
-11 2 -9 3 -23 0 -30 -6 -11 -10 -11 -9 -1 4 6 9 8 20 4 25 -6 7 24 -12 38
-25z m-15 -51 c3 -6 -1 -7 -9 -4 -18 7 -21 14 -7 14 6 0 13 -4 16 -10z m57
-22 c-7 -7 -12 -8 -12 -2 0 14 12 26 19 19 2 -3 -1 -11 -7 -17z m-92 -96 c-5
-2 -7 -9 -4 -16 3 -7 -3 -19 -12 -27 -16 -12 -17 -12 -9 1 5 8 8 28 6 44 -2
25 -1 27 12 15 8 -8 11 -15 7 -17z m65 10 c-3 -3 -11 0 -18 7 -9 10 -8 11 6 5
10 -3 15 -9 12 -12z m-656 -58 c36 -30 41 -70 14 -103 -10 -12 -61 -36 -118
-56 -210 -74 -398 -184 -538 -315 -71 -66 -82 -73 -119 -73 -71 0 -110 69 -72
128 20 31 171 160 250 213 95 65 221 129 361 182 149 57 179 60 222 24z m663
14 c-5 -7 -8 -23 -6 -35 3 -18 -1 -23 -19 -22 -16 0 -18 2 -7 7 20 9 19 30 0
43 -13 9 -12 10 2 5 10 -3 20 -1 23 4 4 6 9 10 12 10 3 0 1 -6 -5 -12z m-48
-17 c3 -5 -1 -11 -9 -14 -9 -4 -12 -1 -8 9 6 16 10 17 17 5z m10 -77 c-1 -15
-7 -31 -13 -37 -9 -9 -7 11 5 51 6 21 11 13 8 -14z m-51 -19 c-3 -9 -8 -14
-10 -11 -3 3 -2 9 2 15 9 16 15 13 8 -4z m77 1 c0 -3 -4 -8 -10 -11 -5 -3 -10
-1 -10 4 0 6 5 11 10 11 6 0 10 -2 10 -4z m-70 -41 c-10 -12 -10 -15 4 -15 9
0 16 4 16 9 0 5 6 11 14 14 9 4 13 0 11 -11 -2 -9 -4 -21 -4 -25 -1 -5 -10 -6
-21 -2 -15 5 -18 3 -14 -8 3 -8 1 -18 -5 -22 -7 -4 -8 1 -4 12 6 16 5 16 -10
4 -9 -7 -15 -17 -12 -21 3 -4 -3 -14 -12 -21 -10 -8 -14 -9 -10 -2 4 7 0 17
-10 23 -11 7 -13 10 -3 7 20 -5 54 28 45 43 -4 7 -1 16 6 21 20 13 23 11 9 -6z
m-255 -97 c5 4 5 1 1 -6 -5 -9 -12 -9 -27 -2 -10 6 -19 13 -19 16 0 2 8 0 19
-5 10 -6 22 -7 26 -3z m-134 -21 c-10 -9 -11 -8 -5 6 3 10 9 15 12 12 3 -3 0
-11 -7 -18z m49 10 c0 5 7 10 16 10 14 0 14 -2 -2 -14 -23 -16 -22 -25 3 -34
15 -7 15 -8 -5 -8 -15 -1 -22 4 -19 12 2 6 -3 21 -12 32 -15 18 -15 19 2 6 9
-7 17 -9 17 -4z m164 -8 c8 7 16 6 26 -1 12 -8 12 -9 -2 -4 -10 3 -20 1 -23
-4 -9 -15 -42 -7 -55 14 -12 20 -12 20 14 2 19 -12 31 -14 40 -7z m-234 -3 c0
-2 -7 -9 -15 -16 -13 -11 -14 -10 -9 4 5 14 24 23 24 12z m-74 -34 c-17 -16
-18 -16 -5 5 7 12 15 20 18 17 3 -2 -3 -12 -13 -22z m249 18 c-3 -5 -11 -10
-16 -10 -6 0 -7 5 -4 10 3 6 11 10 16 10 6 0 7 -4 4 -10z m-160 -10 c-3 -5
-11 -10 -16 -10 -6 0 -7 5 -4 10 3 6 11 10 16 10 6 0 7 -4 4 -10z m-40 -18
c-3 -3 -11 0 -18 7 -9 10 -8 11 6 5 10 -3 15 -9 12 -12z m1 -20 c-10 -2 -22 0
-28 6 -6 6 0 7 19 4 21 -5 23 -7 9 -10z m-156 -3 c0 -5 4 -8 8 -5 5 3 9 -1 9
-9 0 -8 -4 -12 -8 -10 -4 3 -21 -8 -38 -24 -17 -16 -31 -25 -31 -21 0 5 13 19
29 33 22 18 27 27 18 36 -8 8 -8 11 1 11 7 0 12 -5 12 -11z m-60 -24 c11 -13
10 -14 -6 -9 -10 4 -16 4 -12 -1 4 -4 3 -14 -3 -22 -9 -10 -8 -13 2 -13 9 -1
6 -7 -8 -19 -12 -10 -20 -21 -18 -23 3 -3 -7 -15 -22 -29 -14 -13 -23 -19 -20
-12 4 6 2 13 -4 15 -7 2 -5 9 5 17 14 12 16 11 9 -5 -6 -17 -5 -17 10 -5 15
12 14 16 -14 43 -16 17 -27 33 -23 37 4 3 9 0 11 -7 13 -34 63 -51 63 -20 0 5
-4 7 -8 4 -4 -2 -14 0 -22 6 -12 8 -12 9 2 4 20 -6 32 8 37 44 1 14 6 13 21
-5z m124 6 c4 -5 -3 -7 -14 -4 -23 6 -26 13 -6 13 8 0 17 -4 20 -9z m-169 -21
c-3 -5 -11 -10 -16 -10 -6 0 -7 5 -4 10 3 6 11 10 16 10 6 0 7 -4 4 -10z m88
-25 c-3 -9 -8 -14 -10 -11 -3 3 -2 9 2 15 9 16 15 13 8 -4z m-166 -31 c3 -7 9
-11 14 -8 5 3 9 1 9 -5 0 -20 -19 -21 -25 -1 -3 11 -10 20 -15 20 -5 0 -7 -8
-3 -17 5 -16 4 -15 -9 1 -16 21 -35 6 -22 -16 5 -9 2 -8 -9 1 -16 12 -16 15
-1 25 23 17 54 17 61 0z m-141 -52 c-18 -16 -18 -16 -6 6 6 13 14 21 18 18 3
-4 -2 -14 -12 -24z m76 -39 c-10 -7 -12 -13 -5 -13 14 0 43 27 43 41 0 6 7 6
19 -1 13 -7 21 -7 24 0 3 6 4 5 3 -2 -2 -7 -13 -12 -27 -10 -17 2 -20 0 -11
-6 11 -7 7 -11 -12 -16 -15 -4 -24 -11 -21 -16 10 -16 -12 -11 -26 6 -16 20
-21 46 -7 37 7 -4 9 2 5 18 l-6 24 18 -25 c18 -22 18 -25 3 -37z m-128 -14
c-29 -12 -36 -10 -22 5 7 7 19 11 27 8 11 -4 10 -7 -5 -13z m-44 -9 c0 -5 -10
-15 -22 -21 l-23 -12 20 21 c23 24 25 25 25 12z m56 -12 c4 -7 4 -10 -1 -6 -4
4 -14 3 -21 -3 -8 -7 -14 -6 -20 2 -4 7 -3 9 4 5 6 -3 13 -2 17 4 8 13 12 13
21 -2z m-6 -22 c0 -2 -8 -10 -17 -17 -16 -13 -17 -12 -4 4 13 16 21 21 21 13z
m29 -9 c8 -10 7 -14 -2 -14 -8 0 -14 6 -14 14 0 7 1 13 2 13 2 0 8 -6 14 -13z
m56 3 c-3 -5 -12 -10 -18 -10 -7 0 -6 4 3 10 19 12 23 12 15 0z m-125 -9 c0
-6 -5 -13 -10 -16 -6 -4 -8 -11 -4 -16 3 -6 12 -5 22 3 13 11 14 11 8 -1 -6
-9 -5 -12 5 -9 8 3 13 10 12 16 -2 6 4 9 13 5 12 -4 11 -8 -8 -21 -13 -9 -29
-23 -36 -32 -10 -12 -12 -12 -10 -1 2 10 -6 15 -22 15 -14 0 -24 -5 -23 -10 1
-6 -8 -10 -20 -9 -12 1 -30 -5 -40 -13 -14 -13 -20 -13 -30 -2 -9 10 -9 11 1
6 17 -10 32 2 25 20 -4 12 -8 12 -22 2 -14 -12 -15 -11 -2 5 13 17 16 17 26 3
15 -20 27 -9 15 13 -6 13 -4 17 10 17 12 0 17 -6 15 -18 -2 -10 -2 -18 1 -18
11 0 63 54 58 61 -3 5 0 9 5 9 6 0 11 -4 11 -9z m-152 -103 c15 -15 44 -17 55
-3 5 6 7 4 4 -5 -2 -8 -12 -14 -22 -12 -12 2 -15 -1 -9 -10 6 -10 4 -10 -9 1
-13 10 -17 10 -17 1 0 -10 -3 -10 -15 0 -16 13 -21 40 -7 40 4 0 14 -6 20 -12z
m-39 -66 c-5 -2 -9 -8 -9 -13 0 -6 4 -8 8 -5 4 2 14 1 22 -5 10 -6 11 -9 3 -9
-7 0 -13 -5 -13 -11 0 -5 5 -7 12 -3 6 4 8 3 4 -4 -3 -5 0 -13 6 -15 9 -4 10
-6 1 -6 -6 -1 -19 9 -28 22 -18 26 -17 26 -40 7 -11 -9 -16 -10 -11 -2 4 6 3
12 -3 12 -5 0 -12 -5 -14 -10 -3 -6 -4 -5 -3 2 1 7 12 14 24 16 12 2 22 8 22
13 0 6 -5 7 -10 4 -6 -4 -5 4 1 19 11 24 13 24 25 8 7 -9 8 -18 3 -20z m75 -7
c-24 -32 -44 -49 -29 -26 3 5 -2 17 -11 26 -15 15 -14 15 9 11 15 -3 31 1 38
10 24 29 19 13 -7 -21z m-52 -84 c-5 -3 -12 -13 -15 -21 -3 -8 -5 -3 -4 11 1
18 6 25 15 21 7 -2 9 -8 4 -11z m-126 -43 c4 -7 4 -10 -1 -6 -8 7 -43 -33 -36
-41 1 -2 -1 -7 -6 -10 -5 -3 -14 -19 -21 -35 -7 -16 -15 -26 -18 -23 -6 5 7
31 45 90 27 42 27 42 37 25z m76 -33 c-9 -13 -17 -22 -17 -22 0 1 -9 12 -20
25 -18 22 -18 23 0 16 11 -5 16 -4 12 3 -4 6 3 8 18 5 24 -4 24 -5 7 -27z
m-44 -15 c8 0 13 -3 9 -6 -10 -10 -48 7 -40 19 5 8 8 8 11 -1 2 -7 11 -12 20
-12z m7156 -33 c25 -25 73 -204 97 -362 14 -88 18 -347 7 -410 -4 -22 -12 -71
-18 -110 -23 -150 -71 -293 -159 -476 -57 -116 -77 -135 -142 -130 -24 2 -69
51 -69 76 0 12 21 64 46 116 123 252 170 427 181 664 6 153 -6 270 -47 444
-17 68 -30 134 -30 147 0 60 88 87 134 41z m-7169 3 c-3 -5 -2 -10 4 -10 5 0
12 5 14 10 3 6 4 5 3 -2 -1 -7 -12 -14 -24 -14 -18 -1 -20 2 -11 12 13 16 23
19 14 4z m-45 -30 c-12 -8 -12 -10 -1 -10 7 0 11 -6 7 -15 -3 -8 -1 -15 3 -15
5 0 12 6 14 13 4 9 6 9 6 0 1 -7 -9 -17 -20 -24 -15 -8 -19 -8 -15 0 4 6 1 11
-6 12 -11 0 -11 2 0 6 11 4 10 9 -2 22 -14 15 -13 17 7 18 17 2 19 0 7 -7z
m-35 -32 c-3 -12 1 -26 8 -30 9 -6 8 -10 -3 -18 -12 -8 -13 -10 -1 -10 8 0 12
-2 9 -5 -3 -3 -13 -2 -22 1 -13 5 -15 9 -5 15 10 6 10 11 0 23 -9 11 -10 16
-2 16 6 0 10 3 10 8 -2 11 1 22 5 22 3 0 3 -10 1 -22z m-35 -47 c-5 -10 -6
-22 -2 -26 4 -5 1 -5 -5 -1 -8 4 -13 2 -13 -5 0 -7 -3 -10 -6 -7 -3 4 2 17 10
30 9 14 13 28 9 33 -5 4 -2 5 5 1 8 -5 9 -13 2 -25z m50 -35 c0 -2 -7 -7 -16
-10 -8 -3 -12 -2 -9 4 6 10 25 14 25 6z m-61 -51 c17 10 5 -32 -17 -60 -13
-17 -21 -25 -18 -18 4 6 0 14 -6 16 -9 4 -7 6 3 6 24 1 40 24 29 41 -6 8 -10
11 -10 7 0 -5 -4 -5 -10 -2 -6 4 -5 11 3 20 10 11 13 11 15 -1 2 -8 7 -12 11
-9z m6474 -143 c18 -19 52 -45 76 -60 43 -25 44 -26 20 -36 -69 -28 -118 -68
-145 -120 l-28 -54 -19 37 c-30 57 -67 90 -140 126 l-69 33 56 25 c80 37 119
70 145 123 l23 46 25 -44 c13 -23 39 -58 56 -76z m-6519 52 c3 -8 2 -12 -4 -9
-6 3 -10 10 -10 16 0 14 7 11 14 -7z m645 -291 c26 -52 68 -92 136 -129 l56
-31 -46 -28 c-61 -35 -117 -93 -140 -144 -10 -23 -21 -41 -24 -41 -3 0 -19 23
-36 50 -37 63 -64 89 -139 134 -55 33 -57 36 -30 36 73 1 157 69 184 151 7 21
15 39 16 39 2 0 12 -17 23 -37z m3803 -1427 c81 -62 100 -117 52 -155 -38 -30
-69 -19 -143 54 -51 50 -62 67 -56 84 19 61 80 68 147 17z m380 8 c47 -33 88
-86 88 -114 0 -26 -43 -70 -68 -70 -40 0 -162 111 -162 148 0 10 9 28 20 40
28 30 75 28 122 -4z m414 -26 c61 -58 73 -87 51 -122 -36 -55 -96 -38 -176 49
-47 51 -53 86 -19 109 44 31 84 21 144 -36z m344 35 c56 -38 100 -91 100 -121
0 -34 -39 -72 -72 -72 -23 0 -144 113 -154 142 -9 29 32 68 71 68 17 0 42 -8
55 -17z"/>
<path d="M4240 6865 c-7 -9 -8 -15 -2 -15 5 0 12 7 16 15 3 8 4 15 2 15 -2 0
-9 -7 -16 -15z"/>
<path d="M4070 6750 c0 -5 5 -10 11 -10 5 0 7 5 4 10 -3 6 -8 10 -11 10 -2 0
-4 -4 -4 -10z"/>
<path d="M5767 5424 c-151 -33 -252 -90 -355 -198 -110 -116 -157 -234 -156
-396 0 -107 29 -205 85 -289 84 -125 192 -188 441 -251 183 -47 215 -60 262
-100 95 -84 76 -221 -40 -280 -119 -60 -385 -12 -550 100 -25 16 -47 30 -49
30 -2 0 -28 -42 -58 -92 -30 -51 -76 -122 -102 -156 -25 -35 -44 -70 -41 -78
7 -18 126 -95 197 -128 162 -74 287 -100 479 -100 173 0 245 15 376 79 74 36
103 57 162 119 115 121 162 238 162 403 0 164 -46 280 -155 388 -105 105 -187
144 -433 205 -136 34 -163 44 -208 78 -41 30 -58 71 -52 127 7 58 44 106 105
136 94 46 282 21 419 -55 47 -26 52 -25 81 24 12 20 33 46 47 59 14 13 23 27
20 32 -5 8 82 149 99 160 27 18 -198 134 -328 169 -106 29 -310 36 -408 14z"/>
<path d="M3847 5193 c-9 -8 -9 -1490 0 -1522 l6 -23 281 4 c264 5 287 7 381
32 299 79 503 271 577 545 27 100 30 303 5 405 -25 100 -89 224 -153 295 -144
159 -299 234 -539 261 -100 11 -548 14 -558 3z m587 -460 c65 -21 137 -88 166
-156 27 -61 33 -186 12 -254 -20 -66 -73 -135 -131 -170 -64 -38 -150 -60
-163 -41 -4 7 -8 156 -8 330 l0 317 38 -6 c20 -2 59 -12 86 -20z"/>
<path d="M3564 4736 c-11 -8 -67 -30 -126 -49 -327 -111 -438 -225 -478 -491
-22 -149 6 -331 75 -472 52 -107 119 -175 225 -229 67 -34 196 -78 265 -90 22
-4 45 -12 52 -17 31 -25 91 32 79 74 -4 16 -36 40 -99 76 -146 84 -218 162
-258 279 -20 57 -24 87 -23 188 2 253 90 427 280 556 40 27 76 49 79 49 19 0
65 47 65 66 0 28 -18 42 -73 59 -37 11 -48 11 -63 1z"/>
<path d="M6775 4483 c-31 -5 -55 -19 -55 -33 0 -5 19 -26 42 -47 145 -132 170
-160 200 -221 40 -80 49 -185 23 -281 -28 -109 -83 -175 -195 -231 -61 -31
-65 -36 -53 -79 6 -23 8 -24 87 -17 45 3 118 15 164 26 223 54 312 161 312
374 -1 173 -56 341 -141 426 -69 69 -132 90 -257 89 -53 -1 -110 -4 -127 -6z"/>
<path d="M3286 5974 c-5 -14 -4 -15 9 -4 17 14 19 20 6 20 -5 0 -12 -7 -15
-16z"/>
<path d="M3177 5628 c-16 -12 -15 -13 9 -15 17 0 22 2 14 7 -10 6 -9 9 1 13 8
3 9 6 3 6 -5 1 -18 -5 -27 -11z"/>
<path d="M2075 4740 c-3 -5 -1 -10 4 -10 6 0 11 5 11 10 0 6 -2 10 -4 10 -3 0
-8 -4 -11 -10z"/>
<path d="M1940 4670 c0 -5 5 -10 11 -10 5 0 7 5 4 10 -3 6 -8 10 -11 10 -2 0
-4 -4 -4 -10z"/>
<path d="M1870 4449 c0 -5 5 -7 10 -4 6 3 10 8 10 11 0 2 -4 4 -10 4 -5 0 -10
-5 -10 -11z"/>
</g>
</svg>
